<?xml version="1.0" encoding="UTF-8"?>
<svg xmlns="http://www.w3.org/2000/svg" viewBox="0 0 841.89 595.28">
  <defs>
    <style>
      .cls-1 {
        fill: #00a79d;
      }

      .cls-2, .cls-3, .cls-4 {
        fill: #231f20;
      }

      .cls-3 {
        font-family: BentonSans, BentonSans;
      }

      .cls-3, .cls-4 {
        font-size: 5px;
      }

      .cls-4 {
        font-family: BentonSans-Medium, BentonSans;
        font-weight: 500;
      }

      .cls-5 {
        stroke: #febf10;
      }

      .cls-5, .cls-6, .cls-7, .cls-8, .cls-9 {
        fill: none;
      }

      .cls-5, .cls-6, .cls-7, .cls-8, .cls-9, .cls-10 {
        stroke-miterlimit: 10;
      }

      .cls-5, .cls-6, .cls-9 {
        stroke-width: 4px;
      }

      .cls-11 {
        fill: #63297d;
      }

      .cls-6 {
        stroke: #00a79d;
      }

      .cls-7 {
        stroke: #63297d;
      }

      .cls-7, .cls-8, .cls-10 {
        stroke-width: .25px;
      }

      .cls-12 {
        fill: #029648;
      }

      .cls-13, .cls-10 {
        fill: #fff;
      }

      .cls-14 {
        fill: #f15c22;
      }

      .cls-15 {
        fill: #febf10;
      }

      .cls-8 {
        stroke: #029648;
      }

      .cls-9 {
        stroke: #f15c22;
      }

      .cls-10 {
        stroke: #231f20;
      }
    </style>
  </defs>
  <g id="_4_Back" data-name="4_Back">
    <rect class="cls-13" width="841.89" height="595.28"/>
  </g>
  <g id="_0_Key" data-name="0_Key">
    <line class="cls-5" x1="324.84" y1="445.12" x2="448.05" y2="445.12"/>
    <line class="cls-9" x1="362.25" y1="450.12" x2="505.94" y2="450.12"/>
    <line class="cls-6" x1="395.16" y1="283.96" x2="457.11" y2="283.96"/>
    <line class="cls-5" x1="324.84" y1="278.96" x2="457.11" y2="278.96"/>
    <path class="cls-6" d="M377.16,301.96c0-9.95,8.05-18,18-18"/>
    <path class="cls-5" d="M457.11,278.96c4.97,0,9.47-2.01,12.73-5.27"/>
    <path class="cls-6" d="M457.11,283.96c4.97,0,9.47,2.01,12.73,5.27"/>
    <line class="cls-6" x1="469.84" y1="289.23" x2="513.65" y2="333.04"/>
    <line class="cls-6" x1="377.16" y1="301.96" x2="377.16" y2="422.12"/>
    <line class="cls-5" x1="513.65" y1="229.88" x2="469.84" y2="273.69"/>
    <path class="cls-9" d="M505.94,137.77c9.95,0,18,8.05,18,18"/>
    <path class="cls-6" d="M513.65,333.04c3.52,3.52,5.29,8.16,5.29,12.76"/>
    <line class="cls-6" x1="518.94" y1="345.8" x2="518.94" y2="401.07"/>
    <path class="cls-5" d="M324.84,278.96c-9.95,0-18,8.05-18,18"/>
    <path class="cls-6" d="M377.16,422.12c0,9.95,8.05,18,18,18"/>
    <line class="cls-9" x1="523.94" y1="155.77" x2="523.94" y2="432.12"/>
    <path class="cls-5" d="M513.65,229.88c3.52-3.52,5.49-8.3,5.49-12.91"/>
    <line class="cls-5" x1="519.15" y1="159.61" x2="519.15" y2="216.97"/>
    <line class="cls-9" x1="505.94" y1="137.77" x2="445.27" y2="137.77"/>
    <line class="cls-5" x1="306.84" y1="296.96" x2="306.84" y2="427.12"/>
    <path class="cls-5" d="M324.84,445.12c-9.95,0-18-8.05-18-18"/>
    <path class="cls-9" d="M505.94,450.12c9.95,0,18-8.05,18-18"/>
    <line class="cls-6" x1="395.16" y1="440.12" x2="448.05" y2="440.12"/>
    <line class="cls-8" x1="406.59" y1="288.96" x2="406.59" y2="359.54"/>
    <line class="cls-7" x1="411.56" y1="359.54" x2="448.05" y2="435.12"/>
    <rect class="cls-10" x="404.49" y="276.11" width="4.21" height="15.72" rx="2.1" ry="2.1"/>
    <rect class="cls-10" x="519.55" y="154.26" width="4.21" height="10.7" rx="2.1" ry="2.1" transform="translate(362.05 681.27) rotate(-90)"/>
    <rect class="cls-10" x="360.15" y="442.29" width="4.21" height="10.7" rx="2.1" ry="2.1"/>
    <rect class="cls-10" x="445.94" y="432.27" width="4.21" height="20.71" rx="2.1" ry="2.1"/>
    <rect class="cls-10" x="519.33" y="395.72" width="4.21" height="10.7" rx="2.1" ry="2.1" transform="translate(120.36 922.5) rotate(-90)"/>
    <rect class="cls-10" x="406.96" y="354.19" width="4.21" height="10.7" rx="2.1" ry="2.1" transform="translate(49.52 768.6) rotate(-90)"/>
    <circle class="cls-15" cx="406.59" cy="278.96" r="1.62"/>
    <circle class="cls-1" cx="406.59" cy="283.96" r="1.62"/>
    <circle class="cls-13" cx="483.15" cy="260.38" r="1.62"/>
    <circle class="cls-15" cx="519.16" cy="159.61" r="1.62"/>
    <circle class="cls-14" cx="523.94" cy="159.61" r="1.62"/>
    <circle class="cls-15" cx="519.15" cy="159.61" r="1.62"/>
    <circle class="cls-15" cx="362.25" cy="445.14" r="1.62"/>
    <circle class="cls-14" cx="362.25" cy="450.14" r="1.62"/>
    <circle class="cls-1" cx="448.05" cy="440.12" r="1.62"/>
    <circle class="cls-15" cx="448.05" cy="445.12" r="1.62"/>
    <circle class="cls-1" cx="518.93" cy="401.07" r="1.62"/>
    <circle class="cls-14" cx="523.93" cy="401.07" r="1.62"/>
    <g>
      <circle class="cls-13" cx="445.27" cy="137.77" r="2.12"/>
      <path class="cls-14" d="M445.27,136.15c.89,0,1.62.73,1.62,1.62s-.73,1.62-1.62,1.62-1.62-.73-1.62-1.62.73-1.62,1.62-1.62M445.27,135.15c-1.44,0-2.62,1.18-2.62,2.62s1.18,2.62,2.62,2.62,2.62-1.18,2.62-2.62-1.18-2.62-2.62-2.62h0Z"/>
    </g>
    <g>
      <path class="cls-13" d="M406.59,290.45c-.82,0-1.5-.67-1.5-1.5s.67-1.5,1.5-1.5,1.5.67,1.5,1.5-.67,1.5-1.5,1.5Z"/>
      <path class="cls-12" d="M406.59,287.59c.76,0,1.37.61,1.37,1.37s-.61,1.37-1.37,1.37-1.37-.61-1.37-1.37.61-1.37,1.37-1.37M406.59,287.34c-.89,0-1.62.73-1.62,1.62s.73,1.62,1.62,1.62,1.62-.73,1.62-1.62-.73-1.62-1.62-1.62h0Z"/>
    </g>
    <circle class="cls-14" cx="448.05" cy="450.12" r="1.62"/>
    <g>
      <circle class="cls-13" cx="448.05" cy="435.12" r="1.5"/>
      <path class="cls-11" d="M448.05,433.75c.76,0,1.37.61,1.37,1.37s-.61,1.37-1.37,1.37-1.37-.61-1.37-1.37.61-1.37,1.37-1.37M448.05,433.5c-.89,0-1.62.73-1.62,1.62s.73,1.62,1.62,1.62,1.62-.73,1.62-1.62-.73-1.62-1.62-1.62h0Z"/>
    </g>
    <g>
      <circle class="cls-13" cx="406.56" cy="359.54" r="1.5"/>
      <path class="cls-12" d="M406.56,358.17c.76,0,1.37.61,1.37,1.37s-.61,1.37-1.37,1.37-1.37-.61-1.37-1.37.61-1.37,1.37-1.37M406.56,357.92c-.89,0-1.62.73-1.62,1.62s.73,1.62,1.62,1.62,1.62-.73,1.62-1.62-.73-1.62-1.62-1.62h0Z"/>
    </g>
    <g>
      <circle class="cls-13" cx="411.56" cy="359.54" r="1.5"/>
      <path class="cls-11" d="M411.56,358.17c.76,0,1.37.61,1.37,1.37s-.61,1.37-1.37,1.37-1.37-.61-1.37-1.37.61-1.37,1.37-1.37M411.56,357.92c-.89,0-1.62.73-1.62,1.62s.73,1.62,1.62,1.62,1.62-.73,1.62-1.62-.73-1.62-1.62-1.62h0Z"/>
    </g>
    <circle class="cls-13" cx="489.13" cy="308.51" r="1.62"/>
    <circle class="cls-13" cx="377.16" cy="390.76" r="1.62"/>
    <circle class="cls-13" cx="306.84" cy="371.94" r="1.62"/>
    <circle class="cls-13" cx="306.84" cy="329.18" r="1.62"/>
    <circle class="cls-13" cx="306.84" cy="307.48" r="1.62"/>
    <circle class="cls-13" cx="306.84" cy="420.15" r="1.62"/>
    <circle class="cls-13" cx="347.46" cy="278.96" r="1.62"/>
    <circle class="cls-13" cx="377.16" cy="324.95" r="1.62"/>
    <circle class="cls-13" cx="519.15" cy="189.34" r="1.62"/>
    <text class="cls-4" transform="translate(391 273.31)"><tspan x="0" y="0">HOPE RINGS</tspan></text>
    <text class="cls-3" transform="translate(461.45 251.73)"><tspan x="0" y="0">Guards </tspan><tspan x="-7.23" y="6">of the Lord</tspan></text>
    <text class="cls-4" transform="translate(416.18 361.25)"><tspan x="0" y="0">SHRINE</tspan></text>
    <text class="cls-3" transform="translate(492.75 299.86)"><tspan x="0" y="0">Keeper’s </tspan><tspan x="0" y="6">Palace</tspan></text>
    <text class="cls-4" transform="translate(429.19 459.11)"><tspan x="0" y="0">OLIVER’S GATE</tspan></text>
    <text class="cls-4" transform="translate(347.85 459.11)"><tspan x="0" y="0">RIVERLAND</tspan></text>
    <text class="cls-3" transform="translate(355.29 392.37)"><tspan x="0" y="0">Foothill</tspan></text>
    <text class="cls-3" transform="translate(273.85 373.55)"><tspan x="0" y="0">West Bridge</tspan></text>
    <text class="cls-3" transform="translate(284.99 330.79)"><tspan x="0" y="0">Camp 1</tspan></text>
    <text class="cls-3" transform="translate(284.22 309.09)"><tspan x="0" y="0">Camp 2</tspan></text>
    <text class="cls-3" transform="translate(266.91 421.76)"><tspan x="0" y="0">Camp of Honor</tspan></text>
    <text class="cls-4" transform="translate(408.78 139.48)"><tspan x="0" y="0">HOPESGATE</tspan></text>
    <text class="cls-3" transform="translate(338.45 273.31)"><tspan x="0" y="0">Camp 3</tspan></text>
    <text class="cls-4" transform="translate(528.55 402.73)"><tspan x="0" y="0">DURÂ</tspan></text>
    <text class="cls-3" transform="translate(341.86 326.61)"><tspan x="0" y="0">Hall of Plenty</tspan></text>
    <g>
      <path class="cls-2" d="M528.98,154.43h1.3c.8,0,1.43.28,1.43,1.14s-.69,1.16-1.45,1.16h-.66v1.41h-.62v-3.7ZM530.29,156.18c.55,0,.8-.17.8-.6s-.25-.58-.81-.58h-.68v1.18h.69Z"/>
      <path class="cls-2" d="M532.34,154.43h.63v3.7h-.63v-3.7Z"/>
      <path class="cls-2" d="M533.85,154.43h.62v3.13h1.71v.57h-2.33v-3.7Z"/>
      <path class="cls-2" d="M536.56,156.27c0-1.19.65-1.91,1.63-1.91.7,0,1.22.33,1.44,1.17l-.58.16c-.17-.56-.42-.74-.86-.74s-1,.27-1,1.31.5,1.39,1.02,1.39c.49,0,.83-.29.87-.84h-.75v-.51h1.35v1.83h-.52v-.54h0c-.12.26-.44.61-1.01.61-1.06,0-1.58-.81-1.58-1.94Z"/>
      <path class="cls-2" d="M540.46,154.43h1.33c.88,0,1.39.35,1.39,1.11,0,.59-.31.93-.82,1.05l.87,1.54h-.67l-.83-1.46h-.65v1.46h-.62v-3.7ZM541.76,156.13c.52,0,.8-.13.8-.57s-.28-.56-.81-.56h-.68v1.13h.69Z"/>
      <path class="cls-2" d="M543.96,154.43h.63v3.7h-.63v-3.7Z"/>
      <path class="cls-2" d="M545.47,154.43h.83l.99,2.94h0l.96-2.94h.84v3.7h-.61v-2.76h0c-.05.25-.13.5-.22.76l-.72,2.01h-.56l-.72-2.01c-.09-.27-.15-.43-.23-.78h0v2.79h-.57v-3.7Z"/>
      <path class="cls-2" d="M550.1,155.08h-.23v-.65h.66v.59l-.32.62h-.29l.17-.56Z"/>
      <path class="cls-2" d="M551.12,157.26l.5-.26c.22.44.56.65,1.02.65s.76-.15.76-.48-.23-.47-.84-.65c-.72-.21-1.29-.41-1.29-1.11,0-.63.52-1.05,1.27-1.05s1.16.36,1.39.8l-.46.32c-.22-.37-.54-.54-.94-.54s-.65.15-.65.42c0,.35.26.46.87.64.7.21,1.26.44,1.26,1.13,0,.61-.52,1.08-1.4,1.08-.74,0-1.26-.38-1.49-.94Z"/>
      <path class="cls-2" d="M528.98,160.43h1.33c.88,0,1.39.35,1.39,1.11,0,.59-.3.93-.82,1.05l.87,1.54h-.67l-.83-1.46h-.65v1.46h-.62v-3.7ZM530.28,162.13c.52,0,.8-.13.8-.57s-.28-.56-.81-.56h-.68v1.13h.69Z"/>
      <path class="cls-2" d="M532.48,160.43h.63v3.7h-.63v-3.7Z"/>
      <path class="cls-2" d="M533.69,160.43h.64l.96,2.89h0l.97-2.89h.59l-1.29,3.72h-.59l-1.29-3.72Z"/>
      <path class="cls-2" d="M537.4,160.43h2.39v.58h-1.77v.92h1.3v.56h-1.3v1.08h1.87v.57h-2.49v-3.7Z"/>
      <path class="cls-2" d="M540.5,160.43h1.33c.88,0,1.39.35,1.39,1.11,0,.59-.31.93-.82,1.05l.87,1.54h-.67l-.83-1.46h-.65v1.46h-.62v-3.7ZM541.8,162.13c.52,0,.8-.13.8-.57s-.28-.56-.81-.56h-.68v1.13h.69Z"/>
    </g>
    <text class="cls-3" transform="translate(486.16 191)"><tspan x="0" y="0">Outer Camp</tspan></text>
    <g>
      <circle class="cls-14" cx="412.67" cy="128.24" r="3.9"/>
      <path class="cls-13" d="M411.67,126.39h2.33v.58h-1.71v.99h1.24v.56h-1.24v1.58h-.63v-3.7Z"/>
    </g>
    <g>
      <circle class="cls-15" cx="532.46" cy="146.89" r="3.9"/>
      <path class="cls-2" d="M530.9,146.88c0-1.24.7-1.91,1.63-1.91.86,0,1.27.48,1.44,1.15l-.6.17c-.14-.49-.35-.74-.85-.74-.62,0-.99.49-.99,1.33s.38,1.37,1,1.37c.48,0,.75-.24.89-.8l.6.13c-.18.74-.64,1.23-1.49,1.23-.95,0-1.63-.66-1.63-1.93Z"/>
    </g>
    <g>
      <path class="cls-12" d="M406.59,258.42c2.01,0,3.65,1.64,3.65,3.65s-1.64,3.65-3.65,3.65-3.65-1.64-3.65-3.65,1.64-3.65,3.65-3.65M406.59,258.17c-2.15,0-3.9,1.74-3.9,3.9s1.74,3.9,3.9,3.9,3.9-1.74,3.9-3.9-1.74-3.9-3.9-3.9h0Z"/>
      <path class="cls-12" d="M405.1,260.21h.64l1.75,2.64h.01v-2.64h.58v3.7h-.57l-1.82-2.7h0v2.7h-.58v-3.7Z"/>
    </g>
    <g>
      <circle class="cls-14" cx="362.25" cy="467.04" r="3.9"/>
      <path class="cls-13" d="M361.25,465.19h2.33v.58h-1.71v.99h1.24v.56h-1.24v1.58h-.63v-3.7Z"/>
    </g>
    <g>
      <circle class="cls-15" cx="448.02" cy="467.04" r="3.9"/>
      <path class="cls-2" d="M446.47,467.03c0-1.24.7-1.91,1.63-1.91.86,0,1.27.48,1.44,1.15l-.6.17c-.14-.49-.35-.74-.85-.74-.62,0-.99.49-.99,1.33s.38,1.37,1,1.37c.48,0,.75-.24.89-.8l.6.13c-.18.74-.64,1.23-1.49,1.23-.95,0-1.63-.66-1.63-1.93Z"/>
    </g>
    <g>
      <path class="cls-11" d="M455.4,468.02l.5-.26c.22.44.56.65,1.02.65s.76-.15.76-.48-.23-.47-.84-.65c-.72-.21-1.29-.41-1.29-1.11,0-.63.52-1.05,1.27-1.05s1.16.36,1.39.8l-.46.32c-.22-.37-.54-.54-.94-.54s-.65.15-.65.42c0,.35.27.46.87.64.7.21,1.26.44,1.26,1.13,0,.61-.52,1.08-1.4,1.08-.74,0-1.26-.38-1.49-.94Z"/>
      <path class="cls-11" d="M456.84,463.39c2.01,0,3.65,1.64,3.65,3.65s-1.64,3.65-3.65,3.65-3.65-1.64-3.65-3.65,1.64-3.65,3.65-3.65M456.84,463.14c-2.15,0-3.9,1.74-3.9,3.9s1.74,3.9,3.9,3.9,3.9-1.74,3.9-3.9-1.74-3.9-3.9-3.9h0Z"/>
    </g>
    <g>
      <circle class="cls-1" cx="439.26" cy="467.04" r="3.9"/>
      <path class="cls-13" d="M437.87,465.19h1.33c.88,0,1.39.35,1.39,1.11,0,.59-.31.93-.82,1.05l.87,1.54h-.67l-.83-1.46h-.65v1.46h-.62v-3.7ZM439.18,466.88c.52,0,.8-.13.8-.57s-.28-.56-.81-.56h-.68v1.13h.69Z"/>
    </g>
    <g>
      <circle class="cls-1" cx="532.45" cy="391.08" r="3.9"/>
      <path class="cls-13" d="M531.06,389.23h1.33c.88,0,1.39.35,1.39,1.11,0,.59-.31.93-.82,1.05l.87,1.54h-.67l-.83-1.46h-.65v1.46h-.62v-3.7ZM532.36,390.93c.52,0,.8-.13.8-.57s-.28-.56-.81-.56h-.68v1.13h.69Z"/>
    </g>
  </g>
</svg>