<?xml version="1.0" encoding="UTF-8"?>
<svg xmlns="http://www.w3.org/2000/svg" viewBox="1100 400 200 320">
  <g id="Line_1" data-name="Line 1">
    <path d="M1178.58,414.82h60.68c9.95,0,18,8.05,18,18v276.35" fill="none" stroke="#e94f0e" stroke-miterlimit="10" stroke-width="4"/>
  </g>
  <g id="Stations">
    <g id="Hopesgate">
      <g>
        <g>
          <circle cx="1178.58" cy="414.82" r="2.12" fill="#fff"/>
          <path d="M1178.58,413.2c.89,0,1.62.73,1.62,1.62s-.73,1.62-1.62,1.62-1.62-.73-1.62-1.62.73-1.62,1.62-1.62M1178.58,412.2c-1.44,0-2.62,1.18-2.62,2.62s1.18,2.62,2.62,2.62,2.62-1.18,2.62-2.62-1.18-2.62-2.62-2.62h0Z" fill="#e94f0e"/>
        </g>
        <text transform="translate(1141.09 416.48)" fill="#231f20" font-family="sans-serif" font-size="5" font-weight="500"><tspan x="0" y="0">HOPESGATE</tspan></text>
      </g>
    </g>
    <g id="Outer_Camp" data-name="Outer Camp">
      <g>
        <circle cx="1257.26" cy="478.19" r="1.62" fill="#fff"/>
        <text transform="translate(1263.88 479.86)" fill="#231f20" font-family="sans-serif" font-size="5"><tspan x="0" y="0">Outer Camp</tspan></text>
      </g>
    </g>
    <g id="Dûra">
      <g>
        <g>
          <circle cx="1257.26" cy="709.17" r="2.12" fill="#fff"/>
          <path d="M1257.26,707.55c.89,0,1.62.73,1.62,1.62s-.73,1.62-1.62,1.62-1.62-.73-1.62-1.62.73-1.62,1.62-1.62M1257.26,706.55c-1.44,0-2.62,1.18-2.62,2.62s1.18,2.62,2.62,2.62,2.62-1.18,2.62-2.62-1.18-2.62-2.62-2.62h0Z" fill="#e94f0e"/>
        </g>
        <text transform="translate(1263.88 711.03)" fill="#231f20" font-family="sans-serif" font-size="5" font-weight="500"><tspan x="0" y="0">DÛRA</tspan></text>
      </g>
    </g>
  </g>
</svg>
